HIERARCHY
ROOT Hips
{
	OFFSET 0.00 0.00 0.00
	CHANNELS 6 Xposition Yposition Zposition Zrotation Xrotation Yrotation
	JOINT Spine
	{
		OFFSET 0 13.7848 0.0644
		CHANNELS 3 Zrotation Xrotation Yrotation
		JOINT Spine1
		{
			OFFSET 0 12.0447 -0
			CHANNELS 3 Zrotation Xrotation Yrotation
			JOINT Spine2
			{
				OFFSET -0 17.8005 -0
				CHANNELS 3 Zrotation Xrotation Yrotation
				JOINT Neck
				{
					OFFSET 0 40.9166 -0
					CHANNELS 3 Zrotation Xrotation Yrotation
					JOINT Head
					{
						OFFSET -0 21.2887 0
						CHANNELS 3 Zrotation Xrotation Yrotation
						JOINT HeadTop_End
						{
							OFFSET 0 17.4474 0
							CHANNELS 3 Zrotation Xrotation Yrotation
						}
					}
				}
				JOINT LeftShoulder
				{
					OFFSET 17.3995 23.8766 -6.0721
					CHANNELS 3 Zrotation Xrotation Yrotation
					JOINT LeftArm
					{
						OFFSET -0 19.9201 -0
						CHANNELS 3 Zrotation Xrotation Yrotation
						JOINT LeftForeArm
						{
							OFFSET -0 49.2901 -0
							CHANNELS 3 Zrotation Xrotation Yrotation
							JOINT LeftHand
							{
								OFFSET 0 31.562 0
								CHANNELS 3 Zrotation Xrotation Yrotation
								JOINT LeftHandThumb1
								{
									OFFSET -7.9466 6.134 2.4863
									CHANNELS 3 Zrotation Xrotation Yrotation
									JOINT LeftHandThumb2
									{
										OFFSET -0.0255 -7.7944 -0.0327
										CHANNELS 3 Zrotation Xrotation Yrotation
										JOINT LeftHandThumb3
										{
											OFFSET -0.0205 -8.3869 0.0307
											CHANNELS 3 Zrotation Xrotation Yrotation
											JOINT LeftHandThumb4
											{
												OFFSET 0.0565 -7.2511 -0.013
												CHANNELS 3 Zrotation Xrotation Yrotation
											}
										}
									}
								}
								JOINT LeftHandPinky1
								{
									OFFSET 10.9531 18.9207 3.2871
									CHANNELS 3 Zrotation Xrotation Yrotation
									JOINT LeftHandPinky2
									{
										OFFSET -0.0034 -4.9187 0.0963
										CHANNELS 3 Zrotation Xrotation Yrotation
										JOINT LeftHandPinky3
										{
											OFFSET 0.0758 -5.2323 0.0358
											CHANNELS 3 Zrotation Xrotation Yrotation
											JOINT LeftHandPinky4
											{
												OFFSET -0.1312 -5.5702 0.001
												CHANNELS 3 Zrotation Xrotation Yrotation
											}
										}
									}
								}
								JOINT LeftHandRing1
								{
									OFFSET 6.2716 22.7261 1.7123
									CHANNELS 3 Zrotation Xrotation Yrotation
									JOINT LeftHandRing2
									{
										OFFSET -0.0452 -6.4083 0.0434
										CHANNELS 3 Zrotation Xrotation Yrotation
										JOINT LeftHandRing3
										{
											OFFSET -0.1152 -6.1487 -0.0756
											CHANNELS 3 Zrotation Xrotation Yrotation
											JOINT LeftHandRing4
											{
												OFFSET -0.2306 -6.141 -0.0323
												CHANNELS 3 Zrotation Xrotation Yrotation
											}
										}
									}
								}
								JOINT LeftHandMiddle1
								{
									OFFSET -0 23.374 -0
									CHANNELS 3 Zrotation Xrotation Yrotation
									JOINT LeftHandMiddle2
									{
										OFFSET -0.1878 -6.9921 -0.168
										CHANNELS 3 Zrotation Xrotation Yrotation
										JOINT LeftHandMiddle3
										{
											OFFSET -0.0477 -7.0158 0.0144
											CHANNELS 3 Zrotation Xrotation Yrotation
											JOINT LeftHandMiddle4
											{
												OFFSET -0.0402 -7.7215 -0.0133
												CHANNELS 3 Zrotation Xrotation Yrotation
											}
										}
									}
								}
								JOINT LeftHandIndex1
								{
									OFFSET -6.1355 21.3106 -1.073
									CHANNELS 3 Zrotation Xrotation Yrotation
									JOINT LeftHandIndex2
									{
										OFFSET 0.0766 -7.536 -0.0238
										CHANNELS 3 Zrotation Xrotation Yrotation
										JOINT LeftHandIndex3
										{
											OFFSET -0.0927 -7.5116 0.0451
											CHANNELS 3 Zrotation Xrotation Yrotation
											JOINT LeftHandIndex4
											{
												OFFSET -0.0002 -10.2123 -0.0339
												CHANNELS 3 Zrotation Xrotation Yrotation
											}
										}
									}
								}
							}
						}
					}
				}
				JOINT RightShoulder
				{
					OFFSET -17.3995 23.8766 -6.0721
					CHANNELS 3 Zrotation Xrotation Yrotation
					JOINT RightArm
					{
						OFFSET 0 19.9201 0
						CHANNELS 3 Zrotation Xrotation Yrotation
						JOINT RightForeArm
						{
							OFFSET 0 49.2901 0
							CHANNELS 3 Zrotation Xrotation Yrotation
							JOINT RightHand
							{
								OFFSET -0 31.562 0
								CHANNELS 3 Zrotation Xrotation Yrotation
								JOINT RightHandThumb1
								{
									OFFSET 7.9466 6.134 2.4863
									CHANNELS 3 Zrotation Xrotation Yrotation
									JOINT RightHandThumb2
									{
										OFFSET 0.0255 -7.7944 -0.0327
										CHANNELS 3 Zrotation Xrotation Yrotation
										JOINT RightHandThumb3
										{
											OFFSET 0.0205 -8.3869 0.0307
											CHANNELS 3 Zrotation Xrotation Yrotation
											JOINT RightHandThumb4
											{
												OFFSET -0.0565 -7.2511 -0.013
												CHANNELS 3 Zrotation Xrotation Yrotation
											}
										}
									}
								}
								JOINT RightHandIndex1
								{
									OFFSET 6.1355 21.3106 -1.073
									CHANNELS 3 Zrotation Xrotation Yrotation
									JOINT RightHandIndex2
									{
										OFFSET -0.0766 -7.536 -0.0238
										CHANNELS 3 Zrotation Xrotation Yrotation
										JOINT RightHandIndex3
										{
											OFFSET 0.0927 -7.5116 0.0451
											CHANNELS 3 Zrotation Xrotation Yrotation
											JOINT RightHandIndex4
											{
												OFFSET 0.0002 -10.2123 -0.0339
												CHANNELS 3 Zrotation Xrotation Yrotation
											}
										}
									}
								}
								JOINT RightHandMiddle1
								{
									OFFSET 0 23.374 -0
									CHANNELS 3 Zrotation Xrotation Yrotation
									JOINT RightHandMiddle2
									{
										OFFSET 0.1878 -6.9921 -0.168
										CHANNELS 3 Zrotation Xrotation Yrotation
										JOINT RightHandMiddle3
										{
											OFFSET 0.0477 -7.0158 0.0144
											CHANNELS 3 Zrotation Xrotation Yrotation
											JOINT RightHandMiddle4
											{
												OFFSET 0.0402 -7.7215 -0.0133
												CHANNELS 3 Zrotation Xrotation Yrotation
											}
										}
									}
								}
								JOINT RightHandRing1
								{
									OFFSET -6.2716 22.7261 1.7123
									CHANNELS 3 Zrotation Xrotation Yrotation
									JOINT RightHandRing2
									{
										OFFSET 0.0452 -6.4083 0.0434
										CHANNELS 3 Zrotation Xrotation Yrotation
										JOINT RightHandRing3
										{
											OFFSET 0.1152 -6.1487 -0.0756
											CHANNELS 3 Zrotation Xrotation Yrotation
											JOINT RightHandRing4
											{
												OFFSET 0.2306 -6.141 -0.0323
												CHANNELS 3 Zrotation Xrotation Yrotation
											}
										}
									}
								}
								JOINT RightHandPinky1
								{
									OFFSET -10.9531 18.9207 3.2871
									CHANNELS 3 Zrotation Xrotation Yrotation
									JOINT RightHandPinky2
									{
										OFFSET 0.0034 -4.9187 0.0963
										CHANNELS 3 Zrotation Xrotation Yrotation
										JOINT RightHandPinky3
										{
											OFFSET -0.0758 -5.2323 0.0358
											CHANNELS 3 Zrotation Xrotation Yrotation
											JOINT RightHandPinky4
											{
												OFFSET 0.1312 -5.5702 0.001
												CHANNELS 3 Zrotation Xrotation Yrotation
											}
										}
									}
								}
							}
						}
					}
				}
			}
		}
	}
	JOINT LeftUpLeg
	{
		OFFSET 19.8991 -7.8851 -3.4295
		CHANNELS 3 Zrotation Xrotation Yrotation
		JOINT LeftLeg
		{
			OFFSET -0 38.4457 -0
			CHANNELS 3 Zrotation Xrotation Yrotation
			JOINT LeftFoot
			{
				OFFSET -0.1321 32.8117 -0.1889
				CHANNELS 3 Zrotation Xrotation Yrotation
				JOINT LeftToeBase
				{
					OFFSET 0 24.02 0
					CHANNELS 3 Zrotation Xrotation Yrotation
					JOINT LeftToe_End
					{
						OFFSET -0 16.6166 -0
						CHANNELS 3 Zrotation Xrotation Yrotation
					}
				}
			}
		}
	}
	JOINT RightUpLeg
	{
		OFFSET -19.8991 -7.8851 -3.4295
		CHANNELS 3 Zrotation Xrotation Yrotation
		JOINT RightLeg
		{
			OFFSET 0 38.4457 -0
			CHANNELS 3 Zrotation Xrotation Yrotation
			JOINT RightFoot
			{
				OFFSET 0.1321 32.8117 -0.1889
				CHANNELS 3 Zrotation Xrotation Yrotation
				JOINT RightToeBase
				{
					OFFSET -0 24.02 0
					CHANNELS 3 Zrotation Xrotation Yrotation
					JOINT RightToe_End
					{
						OFFSET 0 16.6166 -0
						CHANNELS 3 Zrotation Xrotation Yrotation
					}
				}
			}
		}
	}
}
MOTION
Frames: 7
Frame Time: 0.0333333
13.3835	68.1436	9.1165	5.2797	0.566281	-18.802	-15.1829	35.4927	12.4366	-0.339703	8.30324	0.668912	-0.839645	24.4842	0.904876	-5.91734	25.098	-3.96321	20.8757	-63.9503	12.209	-0	-55.7115	-0	-78.6478	-2.05969	16.1649	16.769	60.066	-29.2382	21.1401	15.9518	25.3263	22.7658	4.05709	-1.34377	-122.541	5.07137	-134.7	25.0908	-5.59641	-7.82704	22.1528	-3.23839	-0.154346	-8.6489	-1.81523	-33.3438	148.08	-2.44487	-168.727	6.85097	40.9684	-13.2689	1.38745	17.543	-2.67835	-0.569979	-8.19974	-4.84949	162.457	15.4482	-176.146	1.41168	62.7395	0.128374	1.38735	10.3969	-2.86772	-0	-6.0471	-0	178.566	1.36049	-178.793	-6.87993	43.4624	12.8232	-3.00733	18.214	2.01237	0.291655	-5.22659	-2.24865	-165.902	-3.9585	172.321	-14.5453	27.5387	17.4897	-8.10846	17.6415	11.6306	-2.39024	-0.645758	5.07582	78.8103	-3.86863	-14.1046	45.0248	63.7569	9.78593	-21.5407	16.2389	-25.2533	-23.277	19.0062	1.64077	125.926	-10.6265	145.368	-14.8671	-10.6509	7.43296	-17.5892	-6.70914	-0.233298	8.6489	-1.81523	33.3438	164.965	-7.2048	-174.051	5.80019	16.4653	-8.21778	7.50173	16.7359	-11.0127	2.39024	-0.645758	-5.07582	-177.135	8.66162	-179.753	5.80102	41.2959	-11.8416	2.7906	17.0786	-1.81841	-0.291655	-5.22659	2.24865	-162.151	16.7725	176.042	-1.58898	60.4454	-0.323162	-1.38982	9.25428	2.66157	-0	-6.0471	-0	-147.816	-1.18673	168.301	-6.04103	38.8653	11.9848	-1.18985	16.4579	2.25316	0.569979	-8.19974	4.84949	-151.32	62.5395	-42.5707	144.796	-67.3649	138.905	-53.8662	78.2148	55.839	-2.92317	56.2547	3.58054	-0.214127	1.01299	0.205132	148.506	41.2924	44.6158	-155.121	-46.8944	-140.66	0.410251	63.7839	-16.9366	-132.997	70.5131	143.256	0.214127	1.01299	-0.205132
14.1628	68.9	8.6562	4.27267	0.228849	-14.3323	-9.85256	38.3982	6.49616	0.392471	8.75715	-0.514093	0.164544	24.9572	-0.339723	-5.40953	26.0267	-3.40494	19.7746	-65.6818	12.9919	-0	-55.7115	-0	-78.6097	-2.557	15.9022	30.9319	58.289	-45.3952	21.313	16.0759	25.295	23.6438	5.16326	-0.974053	-122.541	5.07137	-134.7	25.0908	-5.59641	-7.82704	22.1528	-3.23839	-0.154346	-8.6489	-1.81523	-33.3438	148.08	-2.44486	-168.727	6.85106	40.9684	-13.269	1.38745	17.543	-2.67835	-0.569979	-8.19974	-4.84949	162.457	15.4482	-176.146	1.41168	62.7395	0.128374	1.38735	10.3969	-2.86772	-0	-6.0471	-0	178.325	2.52975	-179.038	-6.87993	43.4624	12.8232	-3.00733	18.214	2.01237	0.291655	-5.22659	-2.24865	-166.243	-2.67096	171.656	-13.8812	26.8493	16.7926	-8.10836	17.6415	11.6306	-2.39024	-0.645758	5.07582	79.1532	-3.25346	-14.0456	50.6308	62.6729	4.78209	-22.3237	16.7968	-25.1046	-21.4585	18.9455	0.980205	125.926	-10.6265	145.368	-14.8672	-10.6509	7.43296	-17.5892	-6.70924	-0.233398	8.6489	-1.81523	33.3438	164.956	-7.23315	-174.067	5.82177	16.4989	-8.24104	7.50183	16.7359	-11.0127	2.39024	-0.645758	-5.07582	-177.135	8.66162	-179.753	5.80104	41.296	-11.8416	2.7906	17.0786	-1.81841	-0.291655	-5.22659	2.24865	-162.151	16.7725	176.042	-1.58898	60.4455	-0.323163	-1.38982	9.25428	2.66157	-0	-6.0471	-0	-147.816	-1.18664	168.301	-6.04103	38.8653	11.9848	-1.18985	16.4579	2.25316	0.569979	-8.19974	4.84949	-160.974	53.1767	-33.0555	142.125	-64.1433	137.973	-119.732	79.2391	121.374	-2.85922	57.3242	3.58279	-0.214127	1.01299	0.205132	140.903	50.2587	51.5245	-156.69	-49.0216	-143.425	6.41758	66.0979	-19.1753	-133.22	79.9477	139.42	0.214127	1.01299	-0.205132
14.7481	70.1418	8.3061	2.96408	-0.264866	-11.4036	-4.16779	40.2	0.709229	0.909513	8.93484	-1.60741	0.953645	25.1586	-1.53041	-4.82457	27.3283	-2.62404	16.5451	-67.2684	12.4296	-0	-55.7115	-0	-78.5854	-3.07195	15.4771	40.5582	55.824	-55.4882	21.9643	16.5413	25.1738	25.2752	5.7171	-2.58929	-122.541	5.07137	-134.7	25.0908	-5.59641	-7.82704	22.1529	-3.23839	-0.154346	-8.6489	-1.81523	-33.3438	148.08	-2.44486	-168.727	6.85106	40.9684	-13.269	1.38745	17.543	-2.67835	-0.569979	-8.19974	-4.84949	162.457	15.4481	-176.146	1.41168	62.7395	0.128374	1.38734	10.3968	-2.86772	-0	-6.0471	-0	178.293	2.68655	-179.071	-6.87993	43.4624	12.8232	-3.00733	18.214	2.01237	0.291655	-5.22659	-2.24865	-166.288	-2.49814	171.567	-13.7932	26.7563	16.7003	-8.10833	17.6415	11.6305	-2.39024	-0.645758	5.07582	79.2453	-2.69446	-14.0234	55.2741	61.3322	0.115065	-23.7062	17.7701	-24.8234	-19.7123	18.4276	0.689032	125.926	-10.6265	145.368	-14.8671	-10.6509	7.43296	-17.5892	-6.70924	-0.233398	8.6489	-1.81523	33.3438	165.017	-7.033	-173.957	5.66972	16.2618	-8.07749	7.50183	16.7359	-11.0127	2.39024	-0.645758	-5.07582	-177.135	8.66162	-179.753	5.80104	41.296	-11.8416	2.7906	17.0786	-1.81841	-0.291655	-5.22659	2.24865	-162.151	16.7725	176.042	-1.58898	60.4454	-0.323162	-1.38982	9.25428	2.66157	-0	-6.0471	-0	-147.816	-1.18664	168.301	-6.04103	38.8653	11.9848	-1.18985	16.4579	2.25316	0.569979	-8.19974	4.84949	-164.838	40.4293	-27.6209	135.996	-64.3461	132.852	-150.118	71.3799	151.492	-2.74134	59.22	3.58125	-0.214127	1.01299	0.205132	130.429	57.0695	59.4677	-156.784	-55.5629	-146.127	11.7295	67.0983	-21.577	-13.6611	79.465	17.8141	0.214127	1.01299	-0.205132
15.1031	71.6734	7.8391	1.62582	-0.714207	-10.3847	0.792054	40.6602	-4.29429	1.14497	8.86227	-2.59186	1.46682	25.1007	-2.65001	-4.29795	28.6716	-1.61736	10.4038	-68.5368	9.8642	-0	-55.7115	-0	-79.1334	-3.90021	14.9337	46.0657	54.6125	-58.8192	23.7257	17.7836	24.8192	27.2481	5.47484	-5.87821	-122.541	5.07136	-134.7	25.0908	-5.59641	-7.82704	22.1528	-3.23839	-0.154346	-8.6489	-1.81523	-33.3438	148.08	-2.44486	-168.727	6.85106	40.9684	-13.269	1.38745	17.543	-2.67835	-0.569979	-8.19974	-4.84949	162.457	15.4482	-176.146	1.41168	62.7395	0.128374	1.38734	10.3968	-2.86772	-0	-6.0471	-0	178.434	1.99735	-178.927	-6.87993	43.4624	12.8232	-3.00733	18.214	2.01237	0.291655	-5.22659	-2.24865	-166.09	-3.25751	171.958	-14.1819	27.164	17.1084	-8.10833	17.6415	11.6305	-2.39024	-0.645758	5.07582	79.1153	-2.1464	-14.027	58.5628	60.0937	-3.23726	-25.1478	18.7685	-24.5053	-18.2964	17.7408	0.816113	125.926	-10.6265	145.368	-14.8671	-10.6509	7.43296	-17.5892	-6.70924	-0.233298	8.6489	-1.81523	33.3438	165.097	-6.77163	-173.816	5.47254	15.9518	-7.86527	7.50183	16.7359	-11.0127	2.39024	-0.645758	-5.07582	-177.135	8.66162	-179.753	5.80104	41.296	-11.8416	2.7906	17.0786	-1.81841	-0.291655	-5.22659	2.24865	-162.151	16.7725	176.042	-1.58898	60.4455	-0.323163	-1.38982	9.25428	2.66157	-0	-6.0471	-0	-147.816	-1.18673	168.301	-6.04103	38.8653	11.9848	-1.18985	16.4579	2.25316	0.569979	-8.19974	4.84949	-164.996	27.7914	-25.0174	127.024	-66.2515	124.09	-156.641	66.9581	157.369	-2.47451	63.1184	3.55043	-0.214127	1.01299	0.205132	121.074	60.1424	65.7535	-156.034	-66.1358	-147.798	17.9909	68.4586	-25.0291	2.84875	57.4966	-3.58294	0.214127	1.01299	-0.205132
15.1581	73.2698	7.5067	0.54169	-1.15438	-10.7002	4.84079	39.8166	-8.55877	1.19173	8.63408	-3.51367	1.80033	24.8718	-3.72479	-3.92013	29.7692	-0.42752	1.4915	-68.9459	5.36968	-0	-55.7115	-0	-80.3909	-4.98338	14.3798	47.6122	55.2801	-57.0634	25.8248	19.2313	24.3474	28.5586	5.39322	-8.65722	-122.541	5.07136	-134.7	25.0908	-5.59641	-7.82704	22.1528	-3.23839	-0.154246	-8.6489	-1.81523	-33.3438	148.08	-2.44495	-168.727	6.85106	40.9684	-13.269	1.38745	17.543	-2.67835	-0.569979	-8.19974	-4.84949	162.457	15.4481	-176.146	1.41168	62.7395	0.128374	1.38734	10.3968	-2.86772	-0	-6.0471	-0	178.675	0.84487	-178.684	-6.87983	43.4624	12.8232	-3.00733	18.214	2.01237	0.291655	-5.22659	-2.24865	-165.746	-4.52534	172.618	-14.8427	27.8406	17.8015	-8.10836	17.6415	11.6306	-2.39024	-0.645758	5.07582	78.9517	-1.44328	-14.0386	60.3508	59.3031	-5.27136	-26.6127	19.7647	-24.1566	-17.2456	17.0538	0.807927	125.926	-10.6265	145.368	-14.8672	-10.6509	7.43296	-17.5892	-6.70924	-0.233298	8.6489	-1.81523	33.3438	165.193	-6.44812	-173.641	5.23075	15.5674	-7.60494	7.50173	16.7359	-11.0127	2.39024	-0.645758	-5.07582	-177.135	8.66162	-179.753	5.80104	41.296	-11.8416	2.7906	17.0786	-1.81841	-0.291655	-5.22659	2.24865	-162.151	16.7725	176.042	-1.58898	60.4455	-0.323163	-1.38982	9.25428	2.66157	-0	-6.0471	-0	-147.816	-1.18664	168.301	-6.04106	38.8654	11.9848	-1.18985	16.4579	2.25316	0.569979	-8.19974	4.84949	-163.64	17.3528	-23.5253	116.417	-68.1047	113.279	-152.369	69.3271	151.728	-1.60955	70.593	1.99629	-0.214127	1.01299	0.205132	118.218	60.5426	65.6843	-149.738	-79.4143	-142.429	28.7109	70.9615	-32.1245	2.85775	57.3489	-3.58279	0.214127	1.01299	-0.205132
14.7821	74.2638	7.6165	-0.13352	-1.6998	-11.1872	8.40554	38.0535	-12.2941	1.25362	8.34711	-4.38797	2.14467	24.5727	-4.73409	-3.74186	30.4091	0.781052	-7.87131	-68.1171	0.767371	-0	-55.7115	-0	-81.9325	-5.86303	13.992	45.3622	56.7271	-53.641	26.6559	19.7938	24.1459	28.5386	6.64921	-8.92149	-122.541	5.07137	-134.7	25.0908	-5.59641	-7.82704	22.1528	-3.23839	-0.154346	-8.6489	-1.81523	-33.3438	148.08	-2.44487	-168.727	6.85097	40.9684	-13.2689	1.38745	17.543	-2.67835	-0.569979	-8.19974	-4.84949	162.457	15.4482	-176.146	1.41168	62.7395	0.128374	1.38734	10.3968	-2.86772	-0	-6.0471	-0	178.885	-0.144648	-178.471	-6.87983	43.4624	12.8232	-3.00733	18.214	2.01237	0.291655	-5.22659	-2.24865	-165.439	-5.61161	173.192	-15.4214	28.4162	18.4077	-8.10836	17.6415	11.6306	-2.39024	-0.645758	5.07582	78.7887	-0.483492	-14.0495	61.3048	59.1156	-6.87413	-28.2291	20.8417	-23.7427	-16.6484	16.3833	0.38149	125.926	-10.6265	145.368	-14.8672	-10.6509	7.43296	-17.5892	-6.70914	-0.233398	8.6489	-1.81523	33.3438	165.323	-6.00946	-173.405	4.907	15.0453	-7.25569	7.50183	16.7359	-11.0127	2.39024	-0.645758	-5.07582	-177.135	8.66162	-179.753	5.80104	41.296	-11.8416	2.7906	17.0786	-1.81841	-0.291655	-5.22659	2.24865	-162.151	16.7725	176.042	-1.58898	60.4455	-0.323163	-1.38982	9.25428	2.66157	-0	-6.0471	-0	-147.816	-1.18673	168.301	-6.04103	38.8653	11.9848	-1.18985	16.4579	2.25316	0.569979	-8.19974	4.84949	-162.368	11.3161	-21.8295	110.795	-68.6446	106.321	-123.637	77.2121	122.598	3.37634	80.4915	-5.97261	-0.214127	1.01299	0.205132	120.445	60.4156	61.2364	-34.3534	-85.9438	-27.1197	38.5348	73.2884	-39.0105	2.87018	57.1437	-3.58263	0.214127	1.01299	-0.205132
14.0925	74.3277	7.915	-0.552736	-2.09369	-11.402	11.5368	35.8838	-15.1348	1.42951	8.09213	-5.06294	2.54234	24.305	-5.50526	-3.70358	30.1979	1.84922	-15.0878	-66.1521	-1.87137	-0	-55.7115	-0	-83.4676	-6.2179	13.8805	40.3268	58.1141	-49.7363	26.1928	19.4811	24.2592	27.6411	8.7046	-7.86607	-122.541	5.07137	-134.7	25.0908	-5.59641	-7.82704	22.1528	-3.23839	-0.154246	-8.6489	-1.81523	-33.3438	148.08	-2.44487	-168.727	6.85106	40.9684	-13.269	1.38745	17.543	-2.67835	-0.569979	-8.19974	-4.84949	162.457	15.4482	-176.146	1.41178	62.7395	0.128374	1.38734	10.3968	-2.86772	-0	-6.0471	-0	178.992	-0.641141	-178.362	-6.87993	43.4624	12.8232	-3.0073	18.214	2.01226	0.291655	-5.22659	-2.24865	-165.28	-6.15568	173.483	-15.7157	28.703	18.7158	-8.10836	17.6415	11.6306	-2.39024	-0.645758	5.07582	78.7689	0.520253	-14.0517	61.0472	59.5209	-7.70004	-29.9912	21.9876	-23.2573	-16.5078	15.5661	-0.11232	125.926	-10.6265	145.368	-14.8672	-10.6509	7.43296	-17.5892	-6.70924	-0.233398	8.6489	-1.81523	33.3438	165.496	-5.41259	-173.087	4.47345	14.3327	-6.78741	7.50183	16.7359	-11.0127	2.39024	-0.645758	-5.07582	-177.135	8.66162	-179.753	5.80104	41.296	-11.8416	2.7906	17.0786	-1.81841	-0.291655	-5.22659	2.24865	-162.151	16.7725	176.042	-1.58898	60.4455	-0.323163	-1.38982	9.25428	2.66157	-0	-6.0471	-0	-147.816	-1.18673	168.301	-6.04103	38.8653	11.9848	-1.18985	16.4579	2.25316	0.569979	-8.19974	4.84949	-162.887	10.9064	-19.9528	110.264	-68.7866	102.607	-37.0422	72.9181	40.043	152.292	77.8676	-159.519	-0.214127	1.01299	0.205132	124.23	59.9198	56.353	-4.19999	-78.526	3.78953	42.5084	74.8462	-41.6513	2.88472	56.9036	-3.58226	0.214127	1.01299	-0.205132
